<svg id="button" xmlns="http://www.w3.org/2000/svg" width="24" height="24" viewBox="0 0 24 24">
  <rect id="Rectangle_7424" data-name="Rectangle 7424" width="24" height="24" fill="rgba(255,255,255,0)"/>
  <g id="button-2" data-name="button" transform="translate(2 2)">
    <rect id="Rectangle_7423" data-name="Rectangle 7423" width="20" height="20" fill="none"/>
    <g id="Group_17800" data-name="Group 17800">
      <path id="Path_11073" data-name="Path 11073" d="M17,5H3A2.006,2.006,0,0,0,1,7v6a2.006,2.006,0,0,0,2,2H17a2.006,2.006,0,0,0,2-2V7A2.006,2.006,0,0,0,17,5Zm1,7a.945.945,0,0,1-1,1H3a.945.945,0,0,1-1-1V7A.945.945,0,0,1,3,6H17a.945.945,0,0,1,1,1Z" fill="#02466a"/>
    </g>
  </g>
</svg>
