<svg id="click" xmlns="http://www.w3.org/2000/svg" width="24" height="24" viewBox="0 0 24 24">
  <rect id="Rectangle_140" data-name="Rectangle 140" width="24" height="24" fill="rgba(255,255,255,0)"/>
  <g id="Page-1" transform="translate(1 4)">
    <g id="icon-27-one-finger-click" transform="translate(5)">
      <path id="one-finger-click" d="M9.474,0V2.2h.551V0ZM13,1.419,11.288,2.805l.347.428,1.712-1.386L13,1.419Zm1.1,3.709-2.146-.5-.124.537,2.146.5.124-.537Zm-8.586.537,2.146-.5-.124-.537-2.146.5.124.537Zm.634-3.818L7.864,3.233l.347-.428L6.5,1.419l-.347.428Zm6.9,15.225a4.213,4.213,0,0,0,4.131-4.13h0v-3.3a.826.826,0,1,0-1.652,0v.274h-.551V8.54a.826.826,0,1,0-1.652,0v.823h-.551V7.989a.826.826,0,1,0-1.652,0V9.913h-.551V4.133a.826.826,0,1,0-1.652,0v6.22C7.79,9.142,6.3,7.809,5.686,8.424s.944,2.261,3.1,5.886c.971,1.633,2.2,2.763,4.269,2.763Zm4.682-4.13a4.681,4.681,0,0,1-4.681,4.681,5.313,5.313,0,0,1-4.769-3.069c-1.8-3.274-4.1-5.422-3-6.516.783-.783,2.012-.032,3.089.975h0V4.135a1.377,1.377,0,1,1,2.754,0V6.883a1.379,1.379,0,0,1,2.118.622,1.376,1.376,0,0,1,2.288,1.03v.007a1.379,1.379,0,0,1,2.2,1.1v3.3Z" transform="translate(-5)" fill="#8a52cc" fill-rule="evenodd"/>
    </g>
  </g>
</svg>
