<?xml version="1.0" standalone="no"?>
<!DOCTYPE svg PUBLIC "-//W3C//DTD SVG 20010904//EN"
 "http://www.w3.org/TR/2001/REC-SVG-20010904/DTD/svg10.dtd">
<svg version="1.0" xmlns="http://www.w3.org/2000/svg"
 width="480.000000pt" height="480.000000pt" viewBox="0 0 480.000000 480.000000"
 preserveAspectRatio="xMidYMid meet">

<g transform="translate(0.000000,480.000000) scale(0.100000,-0.100000)"
fill="#000000" stroke="none">
<path d="M1265 3719 c-68 -16 -185 -80 -236 -130 -67 -65 -123 -157 -145 -236
-18 -64 -19 -118 -19 -893 l0 -825 23 -72 c15 -48 39 -94 71 -137 64 -85 102
-118 182 -160 113 -61 151 -66 456 -66 l273 0 0 -185 c0 -102 3 -185 6 -185 4
0 169 84 368 187 l361 186 4 1264 4 1263 -654 -1 c-367 -1 -672 -5 -694 -10z
m609 -548 c118 -58 190 -169 190 -296 1 -99 -24 -163 -90 -234 -75 -82 -132
-106 -249 -106 -117 0 -174 24 -249 106 -67 72 -91 135 -90 235 3 247 264 405
488 295z"/>
</g>
</svg>
